<svg id="Layer_1" data-name="Layer 1" xmlns="http://www.w3.org/2000/svg" xmlns:xlink="http://www.w3.org/1999/xlink" viewBox="0 0 293 60"><defs><style>.cls-1{fill:#231f20;}.cls-2{fill:#0a73ba;}.cls-3{fill:url(#linear-gradient);}</style><linearGradient id="linear-gradient" x1="17.74" y1="27.68" x2="37.62" y2="27.68" gradientUnits="userSpaceOnUse"><stop offset="0" stop-color="#ef4527"/><stop offset="0.12" stop-color="#ef4a26"/><stop offset="0.26" stop-color="#f15724"/><stop offset="0.41" stop-color="#f36e20"/><stop offset="0.56" stop-color="#f68e1a"/><stop offset="0.71" stop-color="#fab713"/><stop offset="0.79" stop-color="#fccf0f"/></linearGradient></defs><title>logo</title><path class="cls-1" d="M28.91,17.1a10.65,10.65,0,0,0-8,3.22q-3.11,3.22-3.1,8.91a12.72,12.72,0,0,0,1.33,5.7,10.09,10.09,0,0,0,1.74,2.51l1.75-2.39a9.49,9.49,0,0,1-1.66-5.79q0-5.15,2.35-7.36a8,8,0,0,1,5.62-2.2,8.48,8.48,0,0,1,1.73.18l1.61-2.32A11.83,11.83,0,0,0,28.91,17.1Zm9.74,5.73a9.94,9.94,0,0,0-2.55-3.24L35,22.66a8.06,8.06,0,0,1,.83,1.41,11.55,11.55,0,0,1,1,4.87q0,4.42-2.24,6.82a7.48,7.48,0,0,1-5.72,2.4,8,8,0,0,1-3-.53l-2.16,2a11.29,11.29,0,0,0,5.13,1.16,11.7,11.7,0,0,0,5.64-1.41,9.68,9.68,0,0,0,4-4.15A13.31,13.31,0,0,0,40,29,13.53,13.53,0,0,0,38.65,22.83Z"/><path class="cls-1" d="M44.91,18.07,61,36.37V18.07h3V40.36l-3,0L44.91,22V40.36h-3V18.07Z"/><path class="cls-1" d="M85.86,18.07v2.28H70.93v7.17H84.72v2.24H73.89a2.58,2.58,0,0,1-1.3-.41,12.45,12.45,0,0,1-1.66-1.24v9.77H85.86v2.48H68V18.07Z"/><path class="cls-2" d="M102.08,18.07a7.39,7.39,0,0,1,5.06,1.81,5.67,5.67,0,0,1,2.08,4.44,5.55,5.55,0,0,1-2,4.38,7.56,7.56,0,0,1-4.95,1.84l7.34,9.82-3.82,0-6.85-9.6H94.18a2.65,2.65,0,0,1-1.31-.41,15.24,15.24,0,0,1-1.67-1.15V40.36h-3V18.07ZM91.2,28.34h10.62a4.82,4.82,0,0,0,3.27-1.12,3.8,3.8,0,0,0,0-5.72,4.62,4.62,0,0,0-3.27-1.12H91.2Z"/><path class="cls-2" d="M129.85,18.07v2.28H114.92v7.17h13.79v2.24H117.88a2.58,2.58,0,0,1-1.3-.41,12.45,12.45,0,0,1-1.66-1.24v9.77h14.93v2.48H111.94V18.07Z"/><path class="cls-2" d="M147.59,18.07a7.45,7.45,0,0,1,5.15,1.9,5.89,5.89,0,0,1,2.11,4.61v.76H151.9v-.45a4.15,4.15,0,0,0-1.49-3.21,5.21,5.21,0,0,0-3.61-1.34h-7a5.25,5.25,0,0,0-3.61,1.34,4.14,4.14,0,0,0-1.49,3.21v8.45a4.14,4.14,0,0,0,1.51,3.23,5.26,5.26,0,0,0,3.6,1.33h7a5.25,5.25,0,0,0,3.61-1.33,4.16,4.16,0,0,0,1.49-3.23v-.42h2.95v1a6,6,0,0,1-2.12,4.61,7.43,7.43,0,0,1-5.14,1.9H139a7.54,7.54,0,0,1-5.17-1.9,5.92,5.92,0,0,1-2.11-4.61V24.58A5.92,5.92,0,0,1,133.87,20a7.47,7.47,0,0,1,5.14-1.9Z"/><path class="cls-2" d="M161,18.07v9.7h14.34v-9.7h3V40.36h-3V30H164.43A3.15,3.15,0,0,1,163,29.6a18.06,18.06,0,0,1-2-1.26v12h-3V18.07Z"/><path class="cls-2" d="M196.49,18.07a7.24,7.24,0,0,1,5.1,1.9,6.24,6.24,0,0,1,2.17,4.61V40.39h-2.95v-9H188a1.93,1.93,0,0,1-.78-.23,9.26,9.26,0,0,1-1-.54q-.48-.3-.83-.58l-.4-.32V40.39h-3V24.58A5.9,5.9,0,0,1,184.16,20a7.47,7.47,0,0,1,5.14-1.9ZM186.36,22A4.14,4.14,0,0,0,185,25.11v4.05h15.83V25.11a4.21,4.21,0,0,0-1.51-3.23,5.19,5.19,0,0,0-3.61-1.31h-5.9A5,5,0,0,0,186.36,22Z"/><path class="cls-2" d="M221.48,18.07a7.39,7.39,0,0,1,5.06,1.81,5.67,5.67,0,0,1,2.08,4.44,5.55,5.55,0,0,1-2,4.38,7.56,7.56,0,0,1-4.95,1.84L229,40.36l-3.82,0-6.85-9.6h-4.75a2.65,2.65,0,0,1-1.31-.41,15.26,15.26,0,0,1-1.67-1.15V40.36h-3V18.07ZM210.59,28.34h10.62a4.82,4.82,0,0,0,3.27-1.12,3.8,3.8,0,0,0,0-5.72,4.62,4.62,0,0,0-3.27-1.12H210.59Z"/><path class="cls-2" d="M253,18.07v2.28H238.93a5.25,5.25,0,0,0-3.61,1.34,4.14,4.14,0,0,0-1.49,3.21v8.45a4.16,4.16,0,0,0,1.49,3.23,5.28,5.28,0,0,0,3.61,1.33h12V30.13h-6.47V27.87h9.48V40.39h-2.55l-.46-1.53q-.63.5-1.06.78a9.39,9.39,0,0,1-.89.51,1.77,1.77,0,0,1-.75.23H238.12a7.52,7.52,0,0,1-5.15-1.9,6,6,0,0,1-2.12-4.61V24.58A5.92,5.92,0,0,1,233,20a7.47,7.47,0,0,1,5.14-1.9Z"/><path class="cls-2" d="M275.26,18.07v2.28H260.33v7.17h13.79v2.24H263.3a2.58,2.58,0,0,1-1.3-.41,12.44,12.44,0,0,1-1.66-1.24v9.77h14.93v2.48H257.35V18.07Z"/><polygon class="cls-3" points="37.62 11.79 28.75 24.58 28.75 28.57 17.74 43.57 33.18 29.53 33.11 24.88 37.62 11.79"/></svg>