
            <svg width="3228.942086064282" height="1970.2788991524365" xmlns="http://www.w3.org/2000/svg" xmlns:xlink="http://www.w3.org/1999/xlink" version="1.1">
                <g transform="scale(11.447104303214118) translate(10, 10)">
                    <g id="SvgjsG1791" rel="mainfill" name="main_text" transform="translate(-0.6999995708465576,111.64999198913574)" fill="#ffffff"><path fill="#ffffff" d="M11.825 11.524999999999999 q-4.55 0 -7.8 2.475 q-3.325 2.525 -3.325 6.15 t3.325 6.15 q3.225 2.45 7.8 2.45 t7.775 -2.45 q3.325 -2.55 3.325 -6.15 t-3.325 -6.15 q-3.25 -2.475 -7.775 -2.475 z M21.55 20.15 q0 2.975 -2.85 5.0875 t-6.875 2.1125 t-6.875 -2.1125 t-2.85 -5.0875 q0 -3 2.85 -5.1125 t6.875 -2.1125 t6.875 2.1125 t2.85 5.1125 z M34.85 26.375 l-10.7 -16.025 l0 17.3 q0 0.675 0.7 0.675 q0.675 0 0.675 -0.675 l0 -12.725 l9.325 13.975 l9.3 -13.975 l0 12.725 q0 0.675 0.7 0.675 q0.675 0 0.675 -0.675 l0 -17.3 z M67.7 11.95 q-0.7 0 -0.7 0.7 l0 13.6 l-20 -15 l0 16.4 q0 0.675 0.7 0.675 t0.7 -0.675 l0 -13.625 l20 15 l0 -16.375 q0 -0.7 -0.7 -0.7 z M70.42500000000001 12.649999999999999 l0 15 q0 0.675 0.675 0.675 q0.7 0 0.7 -0.675 l0 0 l0 -15 q0 -0.7 -0.7 -0.7 q-0.675 0 -0.675 0.7 z M93.45 20 q2.075 -1.325 2.075 -3.75 q0 -1.825 -1.3 -3.1375 t-3.125 -1.3125 l-16.95 0 l0 16.4 l16.95 0 q1.825 0 3.125 -1.3125 t1.3 -3.1375 q0 -2.425 -2.075 -3.75 z M91.1 13.2 q1.25 0 2.1375 0.9 t0.8875 2.15 t-0.8875 2.15 t-2.1375 0.9 l-15.575 0 l0 -6.1 l15.575 0 z M91.1 26.8 l-15.575 0 l0 -6.1 l15.575 0 q1.25 0 2.1375 0.9 t0.8875 2.15 t-0.8875 2.15 t-2.1375 0.9 z M118.45 26.925 l-5.6 -3.725 l0.2 0 q2.375 0 4.0375 -1.675 t1.6625 -4.025 q0 -2.375 -1.6625 -4.0375 t-4.0375 -1.6625 l-15.7 0 l0 15.7 q0 0.7 0.7 0.7 t0.7 -0.7 l0 -4.3 l11.6 0 l7.325 4.875 q0.175 0.125 0.375 0.125 q0.375 0 0.575 -0.325 q0.125 -0.175 0.125 -0.375 q0 -0.375 -0.3 -0.575 z M98.75 13.2 l14.3 0 q1.775 0 3.0375 1.2625 t1.2625 3.0375 t-1.2625 3.0375 t-3.0375 1.2625 l-14.3 0 l0 -8.6 z M147.22500000000002 27.05 l-13.45 -15.625 l-13.025 15.625 q-0.15 0.175 -0.15 0.425 q0 0.725 0.725 0.725 q0.3 0 0.5 -0.25 l0 0 l3.95 -4.75 l16.3 0 l4.1 4.75 q0.225 0.25 0.55 0.25 q0.675 0 0.675 -0.675 q0 -0.275 -0.175 -0.475 z M126.95000000000002 21.8 l6.85 -8.225 l7.1 8.225 l-13.95 0 z M169.82500000000002 11.95 q-0.7 0 -0.7 0.7 l0 13.6 l-20 -15 l0 16.4 q0 0.675 0.7 0.675 t0.7 -0.675 l0 -13.625 l20 15 l0 -16.375 q0 -0.7 -0.7 -0.7 z M192.60000000000002 15.175 q-1.525 -1.775 -3.975 -2.775 t-5.225 -1 q-4.575 0 -7.8 2.45 q-3.325 2.525 -3.325 6.15 t3.325 6.15 q3.225 2.45 7.8 2.45 q2.775 0 5.225 -1 t3.975 -2.775 l0 0 q0.45 -0.55 -0.05 -0.975 q-0.2 -0.175 -0.475 -0.175 q-0.3 0 -0.5 0.225 l0 0 q-1.375 1.55 -3.5375 2.4375 t-4.6375 0.8875 q-4.025 0 -6.875 -2.125 t-2.85 -5.1 t2.85 -5.1 t6.875 -2.125 q2.475 0 4.6375 0.8875 t3.5375 2.4375 l0 0 q0.2 0.225 0.5 0.225 q0.275 0 0.475 -0.175 q0.5 -0.425 0.05 -0.975 z M215.62500000000003 12.075 q-0.7 0 -0.7 0.7 l0 6.8 l-18.6 0 l0 -6.8 q0 -0.7 -0.7 -0.7 t-0.7 0.7 l0 15 q0 0.7 0.7 0.7 t0.7 -0.7 l0 -6.8 l18.6 0 l0 6.8 q0 0.7 0.7 0.7 t0.7 -0.7 l0 -15 q0 -0.7 -0.7 -0.7 z M238.65000000000003 20.7 q0.7 0 0.7 -0.7 t-0.7 -0.7 l-19.3 0 l0 -6.1 l19.3 0 q0.7 0 0.7 -0.7 t-0.7 -0.7 l-20.7 0 l0 16.4 l20.7 0 q0.7 0 0.7 -0.7 t-0.7 -0.7 l-19.3 0 l0 -6.1 l19.3 0 z M241.37500000000003 22.5 q0 2.575 3.1 4.3375 t7.6 1.7625 q4.475 0 7.3 -0.975 q3.4 -1.175 3.4 -3.45 q0 -2.375 -2.9 -3.425 q-1.65 -0.6 -6.425 -1.25 l-2.475 -0.35 q-4.525 -0.65 -6 -1.15 q-2.2 -0.75 -2.2 -2.175 q0 -1.35 2.6 -2.2 t6.7 -0.85 q3.775 0 6.5375 1.4 t2.7625 3.325 l0 0 q0 0.7 0.7 0.7 t0.7 -0.7 l0 0 q0 -2.575 -3.1 -4.3375 t-7.6 -1.7625 q-4.475 0 -7.3 0.975 q-3.4 1.175 -3.4 3.45 q0 2.375 3.025 3.45 q1.45 0.5 6.4 1.25 l1.175 0.175 l1.275 0.175 q4.575 0.625 6.075 1.15 q2.05 0.7 2.05 2.15 q0 1.35 -2.6 2.2 t-6.7 0.85 q-3.775 0 -6.5375 -1.4 t-2.7625 -3.325 l0 0 q0 -0.7 -0.7 -0.7 t-0.7 0.7 z" style="fill: #ffffff;"/></g><g id="SvgjsG1792" rel="mainfill" name="slogan_text" transform="translate(71.50136465579271,128.15541458129883)" fill="#ffffff"><path fill="#ffffff" d="M4.6973 18.193375 q-0.13671875 0.15625 -0.44921875 0.13671875 l-0.48828 -0.029297 q-0.146484375 -0.009765625 -0.283203125 -0.01953125 t-0.2832 -0.0097656 q-0.29296875 -0.009765625 -0.4296875 0.126953125 q-0.107421875 0.126953125 -0.107421875 0.419921875 q0 0.13671875 0.0146484375 0.2685546875 t0.014648 0.26855 q0.009765625 0.322265625 0.0146484375 0.5615234375 t0.0048828 0.40527 q0 0.498046875 -0.05859375 0.99609375 q-0.029296875 0.234375 0 0.46875 t0.039063 0.45898 q0.009765625 0.25390625 0.0146484375 0.439453125 t0.0048828 0.3125 l0 0.13184 t-0.0097656 0.20996 q-0.01953125 0.263671875 -0.0390625 0.322265625 q-0.126953125 0.21484375 -0.33203125 0.15625 q-0.25390625 -0.048828125 -0.25390625 -0.37109375 q-0.009765625 -0.29296875 0.0146484375 -0.5908203125 t0.043945 -0.59082 q0.029296875 -0.341796875 -0.0048828125 -0.693359375 t-0.03418 -0.70313 q0 -0.322265625 0.0244140625 -0.6494140625 t0.03418 -0.64941 q0 -0.634765625 -0.205078125 -0.8984375 q-0.107421875 -0.13671875 -0.2587890625 -0.2099609375 t-0.33691 -0.092773 t-0.34668 -0.03418 t-0.31738 -0.014648 l-0.29785 0 t-0.27832 -0.058594 q-0.078125 -0.0390625 -0.09765625 -0.185546875 q-0.01953125 -0.107421875 0.029296875 -0.185546875 q0.068359375 -0.1171875 0.341796875 -0.146484375 q0.029296875 -0.009765625 0.107421875 -0.009765625 q0.41015625 -0.009765625 0.7958984375 0.0341796875 t0.7959 0.014648 q0.166015625 -0.009765625 0.3271484375 -0.029296875 t0.33691 -0.019531 l0.64941 0 t0.64941 -0.0097656 q0.166015625 0 0.2880859375 0.009765625 t0.20996 0.048828 q0.302734375 0.205078125 0.15625 0.41015625 z M11.0156375 18.085975 q0.205078125 0.205078125 0.3271484375 0.44921875 l0.24902 0.49805 q0.13671875 0.283203125 0.0830078125 0.5712890625 t-0.31738 0.56152 q-0.205078125 0.21484375 -0.68359375 0.341796875 q-0.17578125 0.048828125 -0.3759765625 0.1025390625 t-0.27832 0.22949 q-0.05859375 0.166015625 0.029296875 0.341796875 q0.09765625 0.185546875 0.15625 0.302734375 t0.097656 0.17578 q0.048828125 0.09765625 0.126953125 0.2197265625 t0.18555 0.27832 q0.224609375 0.3125 0.4736328125 0.5859375 t0.50293 0.52734 l0.048828 0.048828 q0.21484375 0.21484375 0.009765625 0.419921875 q-0.224609375 0.224609375 -0.4296875 0.009765625 l-0.29297 -0.29297 t-0.23438 -0.25391 q-0.234375 -0.29296875 -0.439453125 -0.615234375 q-0.146484375 -0.21484375 -0.2978515625 -0.4150390625 t-0.28809 -0.43457 q-0.390625 -0.703125 -0.966796875 -0.927734375 q-0.615234375 -0.224609375 -0.8984375 0.17578125 q-0.087890625 0.13671875 -0.087890625 0.302734375 l0 2.1191 l0 0.12695 q0 0.29296875 -0.302734375 0.302734375 q-0.302734375 -0.009765625 -0.302734375 -0.37109375 q0 -0.224609375 0.0146484375 -0.4638671875 t0.024414 -0.5127 q0.009765625 -0.185546875 -0.0048828125 -0.380859375 t-0.014648 -0.38086 t0.0097656 -0.37109 t0.0097656 -0.37109 q0.009765625 -0.439453125 -0.029296875 -0.908203125 q0 -0.322265625 0.0146484375 -0.654296875 t0.0048828 -0.67383 q-0.009765625 -0.17578125 -0.009765625 -0.3955078125 t0.058594 -0.39551 q0.17578125 -0.234375 0.830078125 -0.234375 l0.30273 0 q0.3515625 0 0.7080078125 0.029296875 t0.70801 0.0097656 q0.810546875 -0.0390625 1.279296875 0.322265625 z M8.2714375 20.195275 q0.37109375 0.009765625 0.654296875 0.009765625 t0.47852 -0.019531 q0.185546875 -0.01953125 0.4150390625 -0.048828125 t0.50293 -0.078125 q0.556640625 -0.1171875 0.72265625 -0.517578125 q0.068359375 -0.146484375 0.048828125 -0.322265625 t-0.1123 -0.32227 t-0.23438 -0.24902 t-0.30762 -0.17578 t-0.32227 -0.10254 q-0.41015625 -0.078125 -0.8154296875 -0.0634765625 t-0.81543 -0.0048828 q-0.078125 0 -0.1513671875 -0.0048828125 t-0.15137 -0.0048828 q-0.205078125 -0.009765625 -0.3125 0.107421875 q-0.087890625 0.09765625 -0.068359375 0.2734375 q0.009765625 0.048828125 0.009765625 0.205078125 q-0.009765625 0.146484375 -0.0341796875 0.283203125 t-0.03418 0.27344 q-0.05859375 0.380859375 0.087890625 0.56640625 q0.126953125 0.17578125 0.439453125 0.1953125 z M19.804678125 23.515625 q0 0.244140625 -0.205078125 0.3125 q-0.17578125 0.078125 -0.3125 -0.1171875 q-0.068359375 -0.09765625 -0.1123046875 -0.17578125 t-0.073242 -0.14648 q-0.13671875 -0.29296875 -0.244140625 -0.5126953125 t-0.21484 -0.35645 q-0.234375 -0.322265625 -0.517578125 -0.41015625 q-0.244140625 -0.078125 -0.78125 -0.01953125 q-0.3125 0.0390625 -0.5908203125 0.048828125 t-0.53223 -0.0097656 q-0.56640625 -0.0390625 -0.83984375 0.361328125 l-0.019531 0.029297 l-0.0097656 0.019531 q-0.09765625 0.1953125 -0.1611328125 0.3857421875 t-0.15137 0.36621 l-0.20508 0.32227 q-0.13671875 0.205078125 -0.283203125 0.224609375 q-0.068359375 0.029296875 -0.1953125 -0.078125 q-0.05859375 -0.05859375 -0.0732421875 -0.1416015625 t0 -0.1709 t0.048828 -0.18066 t0.063477 -0.16113 l0.23438 -0.48828 q0.341796875 -0.703125 0.6396484375 -1.42578125 t0.62988 -1.4551 q0.05859375 -0.126953125 0.1025390625 -0.2392578125 t0.092773 -0.21973 q0.107421875 -0.263671875 0.21484375 -0.5322265625 t0.24414 -0.53223 l0.14648 -0.22461 q0.107421875 -0.17578125 0.205078125 -0.185546875 q0.09765625 -0.01953125 0.25390625 0.166015625 q0.166015625 0.1953125 0.3173828125 0.458984375 t0.25879 0.49805 q0.341796875 0.72265625 0.6396484375 1.450195313 t0.63965 1.4307 q0.107421875 0.21484375 0.2099609375 0.4345703125 t0.21973 0.4248 q0.05859375 0.146484375 0.1220703125 0.283203125 t0.12207 0.27344 q0.048828125 0.107421875 0.078125 0.17578125 t0.039063 0.11719 z M17.871078125 20.781275 q-0.09765625 -0.234375 -0.1904296875 -0.4833984375 t-0.21973 -0.4834 q-0.234375 -0.44921875 -0.517578125 -0.4296875 q-0.107421875 0 -0.1904296875 0.05859375 t-0.1416 0.1416 t-0.10742 0.18066 t-0.078125 0.18555 q-0.107421875 0.29296875 -0.205078125 0.60546875 t-0.18555 0.60547 q-0.068359375 0.21484375 0.01953125 0.322265625 q0.05859375 0.09765625 0.302734375 0.1171875 q0.21484375 0.009765625 0.380859375 0.0146484375 t0.27344 -0.0048828 q0.21484375 0 0.56640625 -0.05859375 q0.361328125 -0.05859375 0.4296875 -0.322265625 q0.029296875 -0.15625 -0.0390625 -0.263671875 q-0.01953125 -0.0390625 -0.0537109375 -0.0927734375 t-0.043945 -0.092773 z M22.792968125 23.632815 q-0.0390625 0.17578125 -0.302734375 0.205078125 q-0.2734375 -0.009765625 -0.2734375 -0.302734375 q0 -0.76171875 -0.0341796875 -1.538085938 t0.043945 -1.5381 l0 -0.0097656 q0 -0.224609375 0.0048828125 -0.439453125 t-0.014648 -0.41992 l-0.078125 -0.74219 q-0.029296875 -0.3125 0.09765625 -0.673828125 q0.09765625 -0.25390625 0.263671875 -0.302734375 q0.13671875 -0.029296875 0.283203125 0.13671875 q0.13671875 0.146484375 0.205078125 0.25390625 q0.126953125 0.185546875 0.2587890625 0.33203125 t0.25879 0.27344 q0.107421875 0.126953125 0.2197265625 0.2197265625 t0.21973 0.20996 q0.09765625 0.09765625 0.21484375 0.2490234375 t0.25391 0.35645 l0.42969 0.66406 q0.048828125 0.068359375 0.1025390625 0.15625 t0.13184 0.20508 l0.0097656 0.0097656 q0.205078125 0.2734375 0.4296875 0.517578125 q0.107421875 0.1171875 0.21484375 0.2197265625 t0.22461 0.20996 q0.107421875 0.126953125 0.25390625 0.078125 q0.224609375 -0.05859375 0.21484375 -0.44921875 q0 -0.09765625 -0.0146484375 -0.205078125 t-0.014648 -0.21484 q-0.009765625 -0.078125 -0.01953125 -0.1513671875 t-0.0097656 -0.16113 q0 -0.0390625 -0.0048828125 -0.087890625 t-0.0048828 -0.10742 q0.0390625 -0.859375 -0.05859375 -1.6015625 q-0.009765625 -0.048828125 -0.009765625 -0.1611328125 t0.019531 -0.28809 q0.009765625 -0.21484375 0.05859375 -0.458984375 q0.029296875 -0.3515625 0.3125 -0.3515625 q0.3125 0 0.3125 0.37109375 q0.009765625 0.302734375 0.0244140625 0.6103515625 t0.014648 0.61035 q0.009765625 0.44921875 -0.01953125 0.8984375 t-0.0097656 0.89844 q0.01953125 0.302734375 0.0146484375 0.595703125 t-0.014648 0.58594 q0 0.166015625 0.0048828125 0.3271484375 t0.0048828 0.30762 l0 0.39063 q-0.009765625 0.05859375 -0.0146484375 0.1171875 t-0.0048828 0.10742 q-0.009765625 0.009765625 -0.009765625 0.01953125 t-0.0097656 0.0097656 q-0.107421875 0.146484375 -0.33203125 0.146484375 q-0.263671875 0.01953125 -0.400390625 -0.166015625 q-0.146484375 -0.185546875 -0.2685546875 -0.400390625 t-0.26855 -0.41992 q-0.17578125 -0.234375 -0.3857421875 -0.5029296875 t-0.46387 -0.57129 q-0.09765625 -0.107421875 -0.2734375 -0.390625 l-0.3418 -0.54688 q-0.126953125 -0.1953125 -0.25390625 -0.3955078125 t-0.26367 -0.38574 q-0.05859375 -0.068359375 -0.126953125 -0.1513671875 t-0.14648 -0.1416 t-0.17578 -0.087891 t-0.19531 0 q-0.263671875 0.078125 -0.244140625 0.537109375 q0.009765625 0.33203125 0.0146484375 0.625 t0.024414 0.54688 q0.01953125 0.205078125 -0.0048828125 0.41015625 t-0.024414 0.40039 l0 0.76172 q0 0.244140625 -0.0146484375 0.439453125 t-0.03418 0.35156 z M33.9843625 22.958975 q-0.166015625 0.205078125 -0.3173828125 0.361328125 t-0.31738 0.26855 t-0.36621 0.18555 t-0.4541 0.10254 q-0.126953125 0.01953125 -0.263671875 0.0244140625 t-0.29297 -0.014648 q-0.21484375 -0.01953125 -0.419921875 -0.01953125 t-0.41992 -0.048828 q-0.46875 -0.107421875 -0.78125 -0.322265625 t-0.47852 -0.55664 q-0.21484375 -0.46875 0.244140625 -0.48828125 q0.078125 0 0.1806640625 0.1123046875 t0.16113 0.1709 q0.205078125 0.205078125 0.234375 0.224609375 l0.0097656 0 l0 0.0097656 q0.478515625 0.33203125 1.26953125 0.33203125 l0.0097656 0 l0.0097656 0 q0.33203125 0 0.849609375 -0.13671875 q0.5078125 -0.126953125 0.673828125 -0.517578125 q0.087890625 -0.234375 0 -0.5078125 l0 -0.0097656 q-0.244140625 -0.517578125 -0.947265625 -0.693359375 l-1.2012 -0.3125 q-0.25390625 -0.05859375 -0.615234375 -0.244140625 q-0.185546875 -0.09765625 -0.322265625 -0.17578125 t-0.22461 -0.15625 q-0.400390625 -0.29296875 -0.46875 -0.5859375 q-0.009765625 -0.048828125 -0.009765625 -0.13671875 l0 -0.21484 q0 -0.13671875 0.01953125 -0.2685546875 t0.039063 -0.27832 q0.05859375 -0.44921875 0.380859375 -0.80078125 q0.146484375 -0.146484375 0.3564453125 -0.2490234375 t0.40527 -0.19043 q0.2734375 -0.126953125 0.5712890625 -0.1318359375 t0.59082 0.0048828 q0.95703125 0.029296875 1.494140625 0.673828125 q0.244140625 0.302734375 0.185546875 0.498046875 l-0.068359 0.058594 q-0.15625 0.078125 -0.37109375 -0.107421875 q-0.05859375 -0.0390625 -0.107421875 -0.087890625 l-0.097656 -0.097656 t-0.12695 -0.10254 t-0.17578 -0.10254 l-0.019531 -0.019531 l-0.029297 0 q-0.361328125 -0.107421875 -0.7373046875 -0.126953125 t-0.77637 0.068359 q-0.478515625 0.107421875 -0.732421875 0.3955078125 t-0.25391 0.7666 l0 0.019531 l0.0097656 0.019531 q0.0390625 0.60546875 0.9375 0.859375 l0.2832 0.078125 l0.72266 0.24414 q0.166015625 0.05859375 0.33203125 0.1318359375 t0.35156 0.15137 q0.2734375 0.126953125 0.5078125 0.244140625 t0.42969 0.24414 q0.13671875 0.087890625 0.2099609375 0.21484375 t0.097656 0.27344 t0.019531 0.30273 t-0.03418 0.2832 q-0.01953125 0.107421875 -0.0634765625 0.205078125 t-0.092773 0.17578 z M42.0996 23.515625 q0 0.244140625 -0.205078125 0.3125 q-0.17578125 0.078125 -0.3125 -0.1171875 q-0.068359375 -0.09765625 -0.1123046875 -0.17578125 t-0.073242 -0.14648 q-0.13671875 -0.29296875 -0.244140625 -0.5126953125 t-0.21484 -0.35645 q-0.234375 -0.322265625 -0.517578125 -0.41015625 q-0.244140625 -0.078125 -0.78125 -0.01953125 q-0.3125 0.0390625 -0.5908203125 0.048828125 t-0.53223 -0.0097656 q-0.56640625 -0.0390625 -0.83984375 0.361328125 l-0.019531 0.029297 l-0.0097656 0.019531 q-0.09765625 0.1953125 -0.1611328125 0.3857421875 t-0.15137 0.36621 l-0.20508 0.32227 q-0.13671875 0.205078125 -0.283203125 0.224609375 q-0.068359375 0.029296875 -0.1953125 -0.078125 q-0.05859375 -0.05859375 -0.0732421875 -0.1416015625 t0 -0.1709 t0.048828 -0.18066 t0.063477 -0.16113 l0.23438 -0.48828 q0.341796875 -0.703125 0.6396484375 -1.42578125 t0.62988 -1.4551 q0.05859375 -0.126953125 0.1025390625 -0.2392578125 t0.092773 -0.21973 q0.107421875 -0.263671875 0.21484375 -0.5322265625 t0.24414 -0.53223 l0.14648 -0.22461 q0.107421875 -0.17578125 0.205078125 -0.185546875 q0.09765625 -0.01953125 0.25390625 0.166015625 q0.166015625 0.1953125 0.3173828125 0.458984375 t0.25879 0.49805 q0.341796875 0.72265625 0.6396484375 1.450195313 t0.63965 1.4307 q0.107421875 0.21484375 0.2099609375 0.4345703125 t0.21973 0.4248 q0.05859375 0.146484375 0.1220703125 0.283203125 t0.12207 0.27344 q0.048828125 0.107421875 0.078125 0.17578125 t0.039063 0.11719 z M40.166 20.781275 q-0.09765625 -0.234375 -0.1904296875 -0.4833984375 t-0.21973 -0.4834 q-0.234375 -0.44921875 -0.517578125 -0.4296875 q-0.107421875 0 -0.1904296875 0.05859375 t-0.1416 0.1416 t-0.10742 0.18066 t-0.078125 0.18555 q-0.107421875 0.29296875 -0.205078125 0.60546875 t-0.18555 0.60547 q-0.068359375 0.21484375 0.01953125 0.322265625 q0.05859375 0.09765625 0.302734375 0.1171875 q0.21484375 0.009765625 0.380859375 0.0146484375 t0.27344 -0.0048828 q0.21484375 0 0.56640625 -0.05859375 q0.361328125 -0.05859375 0.4296875 -0.322265625 q0.029296875 -0.15625 -0.0390625 -0.263671875 q-0.01953125 -0.0390625 -0.0537109375 -0.0927734375 t-0.043945 -0.092773 z M48.49605 22.929675 q0.458984375 -0.263671875 0.537109375 0.17578125 q0.0390625 0.185546875 -0.1953125 0.361328125 q-0.107421875 0.078125 -0.2001953125 0.1318359375 t-0.1709 0.083008 q-0.224609375 0.09765625 -0.4052734375 0.1416015625 t-0.31738 0.063477 q-0.25390625 0.01953125 -0.537109375 0.01953125 t-0.5957 -0.048828 q-0.634765625 -0.09765625 -1.025390625 -0.439453125 q-0.361328125 -0.302734375 -0.595703125 -0.732421875 t-0.38086 -0.86914 l-0.019531 -0.058594 q-0.087890625 -0.283203125 -0.0634765625 -0.6298828125 t0.014648 -0.64941 q0 -0.234375 0.009765625 -0.4150390625 t0.048828 -0.30762 q0.068359375 -0.244140625 0.3125 -0.6640625 q0.263671875 -0.46875 0.595703125 -0.810546875 t0.89844 -0.45898 q0.146484375 -0.01953125 0.5078125 -0.1171875 q0.107421875 -0.029296875 0.2392578125 -0.048828125 t0.29785 -0.0097656 q0.126953125 0 0.2978515625 0.029296875 t0.39551 0.078125 q0.15625 0.048828125 0.478515625 0.205078125 q0.302734375 0.126953125 0.361328125 0.341796875 q0.01953125 0.078125 -0.01953125 0.166015625 q-0.087890625 0.146484375 -0.205078125 0.17578125 q-0.068359375 0.01953125 -0.1708984375 0 t-0.24902 -0.097656 q-0.1953125 -0.09765625 -0.361328125 -0.166015625 t-0.33691 -0.10254 t-0.35156 -0.024414 t-0.39551 0.068359 q-0.5078125 0.15625 -0.712890625 0.263671875 q-0.21484375 0.1171875 -0.5078125 0.556640625 q-0.234375 0.341796875 -0.3564453125 0.7177734375 t-0.1416 0.77148 t0.063477 0.78613 t0.25879 0.75195 l0 0.0097656 l0.0097656 0 q0.419921875 0.78125 1.201171875 0.9765625 q0.56640625 0.13671875 0.87890625 0.05859375 q0.087890625 -0.009765625 0.166015625 -0.029296875 t0.16602 -0.039063 q0.33203125 -0.068359375 0.576171875 -0.21484375 z M55.976596875 18.193375 q-0.13671875 0.15625 -0.44921875 0.13671875 l-0.48828 -0.029297 q-0.146484375 -0.009765625 -0.283203125 -0.01953125 t-0.2832 -0.0097656 q-0.29296875 -0.009765625 -0.4296875 0.126953125 q-0.107421875 0.126953125 -0.107421875 0.419921875 q0 0.13671875 0.0146484375 0.2685546875 t0.014648 0.26855 q0.009765625 0.322265625 0.0146484375 0.5615234375 t0.0048828 0.40527 q0 0.498046875 -0.05859375 0.99609375 q-0.029296875 0.234375 0 0.46875 t0.039063 0.45898 q0.009765625 0.25390625 0.0146484375 0.439453125 t0.0048828 0.3125 l0 0.13184 t-0.0097656 0.20996 q-0.01953125 0.263671875 -0.0390625 0.322265625 q-0.126953125 0.21484375 -0.33203125 0.15625 q-0.25390625 -0.048828125 -0.25390625 -0.37109375 q-0.009765625 -0.29296875 0.0146484375 -0.5908203125 t0.043945 -0.59082 q0.029296875 -0.341796875 -0.0048828125 -0.693359375 t-0.03418 -0.70313 q0 -0.322265625 0.0244140625 -0.6494140625 t0.03418 -0.64941 q0 -0.634765625 -0.205078125 -0.8984375 q-0.107421875 -0.13671875 -0.2587890625 -0.2099609375 t-0.33691 -0.092773 t-0.34668 -0.03418 t-0.31738 -0.014648 l-0.29785 0 t-0.27832 -0.058594 q-0.078125 -0.0390625 -0.09765625 -0.185546875 q-0.01953125 -0.107421875 0.029296875 -0.185546875 q0.068359375 -0.1171875 0.341796875 -0.146484375 q0.029296875 -0.009765625 0.107421875 -0.009765625 q0.41015625 -0.009765625 0.7958984375 0.0341796875 t0.7959 0.014648 q0.166015625 -0.009765625 0.3271484375 -0.029296875 t0.33691 -0.019531 l0.64941 0 t0.64941 -0.0097656 q0.166015625 0 0.2880859375 0.009765625 t0.20996 0.048828 q0.302734375 0.205078125 0.15625 0.41015625 z  M67.70506875 23.515625 q0 0.244140625 -0.205078125 0.3125 q-0.17578125 0.078125 -0.3125 -0.1171875 q-0.068359375 -0.09765625 -0.1123046875 -0.17578125 t-0.073242 -0.14648 q-0.13671875 -0.29296875 -0.244140625 -0.5126953125 t-0.21484 -0.35645 q-0.234375 -0.322265625 -0.517578125 -0.41015625 q-0.244140625 -0.078125 -0.78125 -0.01953125 q-0.3125 0.0390625 -0.5908203125 0.048828125 t-0.53223 -0.0097656 q-0.56640625 -0.0390625 -0.83984375 0.361328125 l-0.019531 0.029297 l-0.0097656 0.019531 q-0.09765625 0.1953125 -0.1611328125 0.3857421875 t-0.15137 0.36621 l-0.20508 0.32227 q-0.13671875 0.205078125 -0.283203125 0.224609375 q-0.068359375 0.029296875 -0.1953125 -0.078125 q-0.05859375 -0.05859375 -0.0732421875 -0.1416015625 t0 -0.1709 t0.048828 -0.18066 t0.063477 -0.16113 l0.23438 -0.48828 q0.341796875 -0.703125 0.6396484375 -1.42578125 t0.62988 -1.4551 q0.05859375 -0.126953125 0.1025390625 -0.2392578125 t0.092773 -0.21973 q0.107421875 -0.263671875 0.21484375 -0.5322265625 t0.24414 -0.53223 l0.14648 -0.22461 q0.107421875 -0.17578125 0.205078125 -0.185546875 q0.09765625 -0.01953125 0.25390625 0.166015625 q0.166015625 0.1953125 0.3173828125 0.458984375 t0.25879 0.49805 q0.341796875 0.72265625 0.6396484375 1.450195313 t0.63965 1.4307 q0.107421875 0.21484375 0.2099609375 0.4345703125 t0.21973 0.4248 q0.05859375 0.146484375 0.1220703125 0.283203125 t0.12207 0.27344 q0.048828125 0.107421875 0.078125 0.17578125 t0.039063 0.11719 z M65.77146875 20.781275 q-0.09765625 -0.234375 -0.1904296875 -0.4833984375 t-0.21973 -0.4834 q-0.234375 -0.44921875 -0.517578125 -0.4296875 q-0.107421875 0 -0.1904296875 0.05859375 t-0.1416 0.1416 t-0.10742 0.18066 t-0.078125 0.18555 q-0.107421875 0.29296875 -0.205078125 0.60546875 t-0.18555 0.60547 q-0.068359375 0.21484375 0.01953125 0.322265625 q0.05859375 0.09765625 0.302734375 0.1171875 q0.21484375 0.009765625 0.380859375 0.0146484375 t0.27344 -0.0048828 q0.21484375 0 0.56640625 -0.05859375 q0.361328125 -0.05859375 0.4296875 -0.322265625 q0.029296875 -0.15625 -0.0390625 -0.263671875 q-0.01953125 -0.0390625 -0.0537109375 -0.0927734375 t-0.043945 -0.092773 z M70.69335875 23.632815 q-0.0390625 0.17578125 -0.302734375 0.205078125 q-0.2734375 -0.009765625 -0.2734375 -0.302734375 q0 -0.76171875 -0.0341796875 -1.538085938 t0.043945 -1.5381 l0 -0.0097656 q0 -0.224609375 0.0048828125 -0.439453125 t-0.014648 -0.41992 l-0.078125 -0.74219 q-0.029296875 -0.3125 0.09765625 -0.673828125 q0.09765625 -0.25390625 0.263671875 -0.302734375 q0.13671875 -0.029296875 0.283203125 0.13671875 q0.13671875 0.146484375 0.205078125 0.25390625 q0.126953125 0.185546875 0.2587890625 0.33203125 t0.25879 0.27344 q0.107421875 0.126953125 0.2197265625 0.2197265625 t0.21973 0.20996 q0.09765625 0.09765625 0.21484375 0.2490234375 t0.25391 0.35645 l0.42969 0.66406 q0.048828125 0.068359375 0.1025390625 0.15625 t0.13184 0.20508 l0.0097656 0.0097656 q0.205078125 0.2734375 0.4296875 0.517578125 q0.107421875 0.1171875 0.21484375 0.2197265625 t0.22461 0.20996 q0.107421875 0.126953125 0.25390625 0.078125 q0.224609375 -0.05859375 0.21484375 -0.44921875 q0 -0.09765625 -0.0146484375 -0.205078125 t-0.014648 -0.21484 q-0.009765625 -0.078125 -0.01953125 -0.1513671875 t-0.0097656 -0.16113 q0 -0.0390625 -0.0048828125 -0.087890625 t-0.0048828 -0.10742 q0.0390625 -0.859375 -0.05859375 -1.6015625 q-0.009765625 -0.048828125 -0.009765625 -0.1611328125 t0.019531 -0.28809 q0.009765625 -0.21484375 0.05859375 -0.458984375 q0.029296875 -0.3515625 0.3125 -0.3515625 q0.3125 0 0.3125 0.37109375 q0.009765625 0.302734375 0.0244140625 0.6103515625 t0.014648 0.61035 q0.009765625 0.44921875 -0.01953125 0.8984375 t-0.0097656 0.89844 q0.01953125 0.302734375 0.0146484375 0.595703125 t-0.014648 0.58594 q0 0.166015625 0.0048828125 0.3271484375 t0.0048828 0.30762 l0 0.39063 q-0.009765625 0.05859375 -0.0146484375 0.1171875 t-0.0048828 0.10742 q-0.009765625 0.009765625 -0.009765625 0.01953125 t-0.0097656 0.0097656 q-0.107421875 0.146484375 -0.33203125 0.146484375 q-0.263671875 0.01953125 -0.400390625 -0.166015625 q-0.146484375 -0.185546875 -0.2685546875 -0.400390625 t-0.26855 -0.41992 q-0.17578125 -0.234375 -0.3857421875 -0.5029296875 t-0.46387 -0.57129 q-0.09765625 -0.107421875 -0.2734375 -0.390625 l-0.3418 -0.54688 q-0.126953125 -0.1953125 -0.25390625 -0.3955078125 t-0.26367 -0.38574 q-0.05859375 -0.068359375 -0.126953125 -0.1513671875 t-0.14648 -0.1416 t-0.17578 -0.087891 t-0.19531 0 q-0.263671875 0.078125 -0.244140625 0.537109375 q0.009765625 0.33203125 0.0146484375 0.625 t0.024414 0.54688 q0.01953125 0.205078125 -0.0048828125 0.41015625 t-0.024414 0.40039 l0 0.76172 q0 0.244140625 -0.0146484375 0.439453125 t-0.03418 0.35156 z M81.611353125 17.773475 q0.41015625 -0.009765625 0.185546875 0.4296875 q-0.048828125 0.09765625 -0.13671875 0.224609375 t-0.21484 0.29297 q-0.283203125 0.37109375 -0.439453125 0.68359375 q-0.146484375 0.29296875 -0.3369140625 0.5859375 t-0.41504 0.5957 l0 0.0097656 q-0.1171875 0.17578125 -0.1708984375 0.3369140625 t-0.073242 0.30762 q-0.01953125 0.17578125 0.0048828125 0.341796875 t0.024414 0.33203 q0 0.234375 -0.0146484375 0.4541015625 t0.014648 0.4541 q0.009765625 0.087890625 0.01953125 0.205078125 t0.019531 0.27344 q0.01953125 0.3125 -0.09765625 0.44921875 q-0.068359375 0.068359375 -0.21484375 0.087890625 q-0.3125 0.029296875 -0.341796875 -0.458984375 q-0.01953125 -0.439453125 0.01953125 -0.8984375 t0.068359 -0.9082 q0.029296875 -0.380859375 -0.126953125 -0.615234375 q-0.078125 -0.107421875 -0.1513671875 -0.244140625 t-0.1709 -0.29297 q-0.107421875 -0.166015625 -0.2099609375 -0.3369140625 t-0.20996 -0.34668 q-0.1171875 -0.185546875 -0.1953125 -0.3271484375 t-0.12695 -0.23926 q-0.078125 -0.13671875 -0.126953125 -0.234375 t-0.087891 -0.14648 t-0.097656 -0.12695 t-0.13672 -0.17578 q-0.244140625 -0.3125 -0.244140625 -0.458984375 q-0.01953125 -0.087890625 0.0390625 -0.185546875 q0.2734375 -0.322265625 0.517578125 0.0390625 q0.205078125 0.29296875 0.361328125 0.615234375 t0.33203 0.625 q0.13671875 0.224609375 0.2392578125 0.3759765625 t0.2002 0.23926 q0.234375 0.263671875 0.498046875 0.205078125 q0.234375 -0.048828125 0.44921875 -0.361328125 q0.087890625 -0.1171875 0.166015625 -0.244140625 t0.16602 -0.25391 q0.078125 -0.09765625 0.13671875 -0.2197265625 t0.1123 -0.24902 t0.1123 -0.25391 t0.13672 -0.24414 q0.21484375 -0.302734375 0.517578125 -0.341796875 z M87.20705 20.751975 q0.126953125 -0.21484375 0.25390625 -0.21484375 q0.1171875 0.009765625 0.205078125 0.21484375 q0.107421875 0.234375 0.2197265625 0.4443359375 t0.21973 0.4541 l0.12695 0.30273 q0.1171875 0.263671875 0.3125 0.234375 q0.009765625 0 0.068359375 -0.01953125 q0.166015625 -0.048828125 0.1953125 -0.3125 q0.01953125 -0.078125 0.029296875 -0.1611328125 t0.029297 -0.1709 q0.029296875 -0.15625 0.0537109375 -0.29296875 t0.063477 -0.24414 q0.029296875 -0.087890625 0.087890625 -0.21484375 t0.13672 -0.29297 q0.21484375 -0.46875 0.3662109375 -0.95703125 t0.29785 -0.98633 l0.10742 -0.37109 q0.068359375 -0.263671875 0.15625 -0.3515625 q0.15625 -0.166015625 0.390625 -0.0390625 q0.185546875 0.126953125 0.09765625 0.41015625 q-0.146484375 0.458984375 -0.3515625 0.849609375 q-0.048828125 0.1171875 -0.087890625 0.25390625 q-0.01953125 0.078125 -0.0439453125 0.1611328125 t-0.053711 0.18066 q-0.048828125 0.166015625 -0.078125 0.302734375 t-0.058594 0.24414 q-0.048828125 0.1953125 -0.078125 0.33203125 t-0.048828 0.20508 q-0.13671875 0.46875 -0.283203125 0.908203125 t-0.32227 0.87891 q-0.068359375 0.15625 -0.1025390625 0.33203125 t-0.073242 0.33203 q-0.087890625 0.4296875 -0.244140625 0.56640625 q-0.107421875 0.078125 -0.234375 0.078125 q-0.1171875 0 -0.2099609375 -0.05859375 t-0.16113 -0.15625 t-0.1123 -0.20508 t-0.073242 -0.21484 q-0.05859375 -0.146484375 -0.09765625 -0.3076171875 t-0.097656 -0.32715 q-0.13671875 -0.380859375 -0.400390625 -0.380859375 q-0.244140625 0 -0.37109375 0.244140625 q-0.068359375 0.126953125 -0.1171875 0.2294921875 t-0.078125 0.19043 q-0.048828125 0.1171875 -0.0830078125 0.2392578125 t-0.063477 0.23926 l0 0.0097656 q-0.087890625 0.341796875 -0.17578125 0.4296875 q-0.078125 0.05859375 -0.29296875 0.05859375 q-0.244140625 -0.009765625 -0.33203125 -0.4296875 q-0.01953125 -0.126953125 -0.0537109375 -0.2197265625 t-0.053711 -0.1709 q-0.224609375 -0.498046875 -0.390625 -1.010742188 t-0.3125 -1.04 q-0.09765625 -0.322265625 -0.1806640625 -0.64453125 t-0.20996 -0.64453 q-0.078125 -0.21484375 -0.15625 -0.419921875 t-0.13672 -0.41016 l-0.083008 -0.24902 t-0.073242 -0.26855 q-0.0390625 -0.146484375 -0.0390625 -0.283203125 q0.01953125 -0.2734375 0.2734375 -0.283203125 q0.234375 -0.009765625 0.3125 0.2734375 q0.068359375 0.244140625 0.126953125 0.4736328125 t0.15625 0.46387 q0.126953125 0.33203125 0.2685546875 0.6396484375 t0.22949 0.64941 q0.048828125 0.15625 0.09765625 0.2978515625 t0.10742 0.28809 q0.09765625 0.234375 0.126953125 0.4296875 q0.029296875 0.146484375 0.05859375 0.2978515625 t0.058594 0.28809 q0.087890625 0.361328125 0.302734375 0.37109375 q0.21484375 0.0390625 0.41015625 -0.33203125 q0.068359375 -0.13671875 0.1416015625 -0.2734375 t0.15137 -0.2832 q0.068359375 -0.126953125 0.146484375 -0.4296875 q0 -0.029296875 0.009765625 -0.0634765625 t0.019531 -0.063477 z M95.302765625 19.990275 q0.3515625 0.009765625 0.703125 0.0244140625 t0.70313 0.063477 q0.2734375 0.0390625 0.419921875 -0.1171875 q0.107421875 -0.1171875 0.1025390625 -0.29296875 t-0.0048828 -0.33203 q0.009765625 -0.244140625 0.009765625 -0.4248046875 l0 -0.29785 q0 -0.05859375 0.0048828125 -0.15625 t0.0097656 -0.2002 t0.019531 -0.2002 t0.043945 -0.15625 q0.087890625 -0.205078125 0.322265625 -0.185546875 q0.25390625 0.029296875 0.25390625 0.439453125 q-0.009765625 0.244140625 -0.029296875 0.48828125 t0 0.47852 l0 0.0097656 q0 0.390625 0.01953125 0.78125 t0.039063 0.77148 q0.01953125 0.234375 0 0.4736328125 t-0.019531 0.47363 q-0.009765625 0.41015625 -0.009765625 0.8154296875 l0 0.81543 q0 0.361328125 -0.068359375 0.46875 q-0.0390625 0.068359375 -0.15625 0.09765625 q-0.3515625 0.087890625 -0.400390625 -0.3125 q-0.048828125 -0.498046875 -0.0341796875 -1.005859375 t-0.0048828 -1.0156 q-0.009765625 -0.185546875 -0.0439453125 -0.41015625 t-0.19043 -0.36133 q-0.146484375 -0.1171875 -0.5078125 -0.1171875 q-0.17578125 0 -0.3466796875 0.009765625 t-0.34668 0 l-0.55664 0 q-0.17578125 0.009765625 -0.3466796875 -0.0048828125 t-0.34668 -0.024414 q-0.37109375 -0.029296875 -0.556640625 0.09765625 q-0.224609375 0.1953125 -0.224609375 0.654296875 q0 0.302734375 0.009765625 0.6103515625 t0.0097656 0.60059 q0 0.244140625 -0.009765625 0.4248046875 t-0.0097656 0.30762 q-0.009765625 0.13671875 -0.01953125 0.234375 t-0.029297 0.16602 q-0.107421875 0.205078125 -0.341796875 0.146484375 q-0.234375 -0.0390625 -0.234375 -0.361328125 l0 -0.63477 t0.0097656 -0.63477 q0.009765625 -0.302734375 0 -0.6103515625 t-0.0097656 -0.62012 q0 -0.498046875 0.009765625 -0.99609375 l0.019531 -0.99609 q0 -0.078125 -0.009765625 -0.21484375 t-0.019531 -0.3418 q-0.01953125 -0.419921875 0.029296875 -0.52734375 q0.126953125 -0.185546875 0.29296875 -0.17578125 q0.29296875 0.009765625 0.322265625 0.458984375 q0.009765625 0.1171875 0.0146484375 0.205078125 t0.0048828 0.15625 l0 0.13672 t-0.019531 0.20508 l-0.039063 0.29297 t-0.019531 0.2832 q-0.01953125 0.3125 0.1171875 0.4296875 q0.146484375 0.107421875 0.390625 0.068359375 q0.13671875 -0.009765625 0.234375 -0.009765625 l0.16602 0 q0.166015625 0.009765625 0.33203125 0.029296875 t0.3418 0.019531 z M100.615234375 23.251955 q-0.009765625 -0.595703125 -0.0048828125 -1.19140625 t0.0048828 -1.1914 l0 -0.3418 q0 -0.263671875 -0.0146484375 -0.5322265625 t0.0048828 -0.53223 q0.009765625 -0.29296875 0.009765625 -0.5810546875 t0.0097656 -0.58105 q0 -0.3515625 0.166015625 -0.48828125 q0.126953125 -0.09765625 0.44921875 -0.09765625 q0.166015625 -0.009765625 0.2880859375 -0.0146484375 t0.20996 -0.0048828 q0.380859375 -0.009765625 0.76171875 0.0048828125 t0.76172 0.0048828 q0.205078125 -0.009765625 0.41015625 -0.0146484375 t0.40039 0.014648 l0.49805 0.029297 q0.087890625 0.009765625 0.1513671875 0.009765625 t0.1123 0.019531 q0.205078125 0.107421875 0.1953125 0.302734375 q-0.009765625 0.087890625 -0.068359375 0.1416015625 t-0.13184 0.083008 t-0.15137 0.039063 t-0.13672 0.0097656 q-0.595703125 0 -1.181640625 -0.029296875 q-0.05859375 -0.009765625 -0.146484375 -0.009765625 l-0.19531 0 l-0.56641 0 q-0.224609375 0 -0.400390625 0.0048828125 t-0.29297 0.0048828 q-0.166015625 0.009765625 -0.2734375 0.0439453125 t-0.15625 0.1123 q-0.078125 0.1171875 -0.05859375 0.29296875 l0 0.13672 t-0.0097656 0.10742 q-0.01953125 0.1171875 -0.029296875 0.2490234375 t0 0.28809 q0 0.2734375 0.21484375 0.458984375 q0.17578125 0.15625 0.634765625 0.126953125 q0.205078125 -0.009765625 0.4052734375 -0.0341796875 t0.40527 -0.014648 q0.087890625 0 0.2294921875 0.0048828125 t0.33691 -0.0048828 q0.390625 -0.009765625 0.52734375 0.13671875 q0.048828125 0.068359375 0.0390625 0.224609375 q-0.029296875 0.17578125 -0.2734375 0.21484375 q-0.224609375 0.0390625 -0.361328125 0.0390625 q-0.17578125 0.009765625 -0.3466796875 0.0048828125 t-0.34668 0.0048828 q-0.21484375 0.01953125 -0.439453125 0.009765625 t-0.46875 -0.029297 q-0.029296875 0 -0.068359375 -0.0048828125 t-0.068359 -0.0048828 l-0.0097656 0 q-0.107421875 -0.01953125 -0.21484375 0.048828125 q-0.17578125 0.107421875 -0.1953125 0.37109375 q-0.01953125 0.25390625 0 0.439453125 q0.009765625 0.107421875 0.0146484375 0.1953125 t-0.0048828 0.15625 q-0.01953125 0.146484375 -0.0341796875 0.2880859375 t-0.03418 0.28809 q-0.029296875 0.37109375 0.09765625 0.556640625 q0.166015625 0.224609375 0.576171875 0.224609375 q0.322265625 0 0.654296875 -0.0146484375 t0.66406 -0.03418 q0.302734375 -0.009765625 0.6201171875 0.01953125 t0.62988 0.029297 q0.1171875 0 0.3125 -0.0048828125 t0.30273 0.053711 q0.09765625 0.05859375 0.107421875 0.17578125 q0.107421875 0.3515625 -0.302734375 0.37109375 q-0.64453125 0.029296875 -1.264648438 0.01953125 t-1.2451 0 q-0.0390625 0 -0.0732421875 0.0048828125 t-0.063477 0.0048828 l-0.38574 0 t-0.26855 -0.0097656 q-0.068359375 0 -0.1611328125 -0.0048828125 t-0.20996 -0.014648 q-0.09765625 -0.009765625 -0.1611328125 -0.01953125 t-0.092773 -0.019531 q-0.29296875 -0.087890625 -0.29296875 -0.546875 z M111.201184375 18.085975 q0.205078125 0.205078125 0.3271484375 0.44921875 l0.24902 0.49805 q0.13671875 0.283203125 0.0830078125 0.5712890625 t-0.31738 0.56152 q-0.205078125 0.21484375 -0.68359375 0.341796875 q-0.17578125 0.048828125 -0.3759765625 0.1025390625 t-0.27832 0.22949 q-0.05859375 0.166015625 0.029296875 0.341796875 q0.09765625 0.185546875 0.15625 0.302734375 t0.097656 0.17578 q0.048828125 0.09765625 0.126953125 0.2197265625 t0.18555 0.27832 q0.224609375 0.3125 0.4736328125 0.5859375 t0.50293 0.52734 l0.048828 0.048828 q0.21484375 0.21484375 0.009765625 0.419921875 q-0.224609375 0.224609375 -0.4296875 0.009765625 l-0.29297 -0.29297 t-0.23438 -0.25391 q-0.234375 -0.29296875 -0.439453125 -0.615234375 q-0.146484375 -0.21484375 -0.2978515625 -0.4150390625 t-0.28809 -0.43457 q-0.390625 -0.703125 -0.966796875 -0.927734375 q-0.615234375 -0.224609375 -0.8984375 0.17578125 q-0.087890625 0.13671875 -0.087890625 0.302734375 l0 2.1191 l0 0.12695 q0 0.29296875 -0.302734375 0.302734375 q-0.302734375 -0.009765625 -0.302734375 -0.37109375 q0 -0.224609375 0.0146484375 -0.4638671875 t0.024414 -0.5127 q0.009765625 -0.185546875 -0.0048828125 -0.380859375 t-0.014648 -0.38086 t0.0097656 -0.37109 t0.0097656 -0.37109 q0.009765625 -0.439453125 -0.029296875 -0.908203125 q0 -0.322265625 0.0146484375 -0.654296875 t0.0048828 -0.67383 q-0.009765625 -0.17578125 -0.009765625 -0.3955078125 t0.058594 -0.39551 q0.17578125 -0.234375 0.830078125 -0.234375 l0.30273 0 q0.3515625 0 0.7080078125 0.029296875 t0.70801 0.0097656 q0.810546875 -0.0390625 1.279296875 0.322265625 z M108.456984375 20.195275 q0.37109375 0.009765625 0.654296875 0.009765625 t0.47852 -0.019531 q0.185546875 -0.01953125 0.4150390625 -0.048828125 t0.50293 -0.078125 q0.556640625 -0.1171875 0.72265625 -0.517578125 q0.068359375 -0.146484375 0.048828125 -0.322265625 t-0.1123 -0.32227 t-0.23438 -0.24902 t-0.30762 -0.17578 t-0.32227 -0.10254 q-0.41015625 -0.078125 -0.8154296875 -0.0634765625 t-0.81543 -0.0048828 q-0.078125 0 -0.1513671875 -0.0048828125 t-0.15137 -0.0048828 q-0.205078125 -0.009765625 -0.3125 0.107421875 q-0.087890625 0.09765625 -0.068359375 0.2734375 q0.009765625 0.048828125 0.009765625 0.205078125 q-0.009765625 0.146484375 -0.0341796875 0.283203125 t-0.03418 0.27344 q-0.05859375 0.380859375 0.087890625 0.56640625 q0.126953125 0.17578125 0.439453125 0.1953125 z M114.453125 23.251955 q-0.009765625 -0.595703125 -0.0048828125 -1.19140625 t0.0048828 -1.1914 l0 -0.3418 q0 -0.263671875 -0.0146484375 -0.5322265625 t0.0048828 -0.53223 q0.009765625 -0.29296875 0.009765625 -0.5810546875 t0.0097656 -0.58105 q0 -0.3515625 0.166015625 -0.48828125 q0.126953125 -0.09765625 0.44921875 -0.09765625 q0.166015625 -0.009765625 0.2880859375 -0.0146484375 t0.20996 -0.0048828 q0.380859375 -0.009765625 0.76171875 0.0048828125 t0.76172 0.0048828 q0.205078125 -0.009765625 0.41015625 -0.0146484375 t0.40039 0.014648 l0.49805 0.029297 q0.087890625 0.009765625 0.1513671875 0.009765625 t0.1123 0.019531 q0.205078125 0.107421875 0.1953125 0.302734375 q-0.009765625 0.087890625 -0.068359375 0.1416015625 t-0.13184 0.083008 t-0.15137 0.039063 t-0.13672 0.0097656 q-0.595703125 0 -1.181640625 -0.029296875 q-0.05859375 -0.009765625 -0.146484375 -0.009765625 l-0.19531 0 l-0.56641 0 q-0.224609375 0 -0.400390625 0.0048828125 t-0.29297 0.0048828 q-0.166015625 0.009765625 -0.2734375 0.0439453125 t-0.15625 0.1123 q-0.078125 0.1171875 -0.05859375 0.29296875 l0 0.13672 t-0.0097656 0.10742 q-0.01953125 0.1171875 -0.029296875 0.2490234375 t0 0.28809 q0 0.2734375 0.21484375 0.458984375 q0.17578125 0.15625 0.634765625 0.126953125 q0.205078125 -0.009765625 0.4052734375 -0.0341796875 t0.40527 -0.014648 q0.087890625 0 0.2294921875 0.0048828125 t0.33691 -0.0048828 q0.390625 -0.009765625 0.52734375 0.13671875 q0.048828125 0.068359375 0.0390625 0.224609375 q-0.029296875 0.17578125 -0.2734375 0.21484375 q-0.224609375 0.0390625 -0.361328125 0.0390625 q-0.17578125 0.009765625 -0.3466796875 0.0048828125 t-0.34668 0.0048828 q-0.21484375 0.01953125 -0.439453125 0.009765625 t-0.46875 -0.029297 q-0.029296875 0 -0.068359375 -0.0048828125 t-0.068359 -0.0048828 l-0.0097656 0 q-0.107421875 -0.01953125 -0.21484375 0.048828125 q-0.17578125 0.107421875 -0.1953125 0.37109375 q-0.01953125 0.25390625 0 0.439453125 q0.009765625 0.107421875 0.0146484375 0.1953125 t-0.0048828 0.15625 q-0.01953125 0.146484375 -0.0341796875 0.2880859375 t-0.03418 0.28809 q-0.029296875 0.37109375 0.09765625 0.556640625 q0.166015625 0.224609375 0.576171875 0.224609375 q0.322265625 0 0.654296875 -0.0146484375 t0.66406 -0.03418 q0.302734375 -0.009765625 0.6201171875 0.01953125 t0.62988 0.029297 q0.1171875 0 0.3125 -0.0048828125 t0.30273 0.053711 q0.09765625 0.05859375 0.107421875 0.17578125 q0.107421875 0.3515625 -0.302734375 0.37109375 q-0.64453125 0.029296875 -1.264648438 0.01953125 t-1.2451 0 q-0.0390625 0 -0.0732421875 0.0048828125 t-0.063477 0.0048828 l-0.38574 0 t-0.26855 -0.0097656 q-0.068359375 0 -0.1611328125 -0.0048828125 t-0.20996 -0.014648 q-0.09765625 -0.009765625 -0.1611328125 -0.01953125 t-0.092773 -0.019531 q-0.29296875 -0.087890625 -0.29296875 -0.546875 z" style="fill: #ffffff;"/></g><defs id="SvgjsDefs1790"/><g id="SvgjsG1793" rel="mainfill" name="monogram" transform="translate(95.98150587081909,-22.399999618530273) scale(1)" fill="#ffffff"><path fill="#ffffff" d="M-5.712 100.24000000000001 l0 0 l0 0 l0 0 l0 0 l0 0 l0 0 l0 0 l-1.232 -18.48 l0 0 l0 0 l0 0 l0 -0.112 l0 0 l0.336 -18.144 l0 0 l0 0 l0 0 l0 0 l0 0 l0 0 l2.352 -13.44 l0 0 l0 -0.112 l0 0 l0 0 l8.736 -16.464 l0 0 l0 0 l0 0 l0 0 l0 0 l0 0 l0 -0.112 l14.784 -8.848 l0 0 l0 0 l0 0 l0 0 l0 0 l0 0 l0 0 l0 0 l0 0 l19.264 -2.128 l0 0 l0 0 l0 0 l0 0 l0 0 l0 0 l0 0 l14.448 3.36 l0 0 l0 0 l0 0 l0 0.112 l0 0 l0 0 l0 0 l0 0 l12.32 8.176 l0 0 l0 0.112 l0 0 l0 0 l0 0 l0 0 l8.848 14.672 l0 0 l0 0.112 l0 0 l0 0 l0 0 l0 0 l2.688 15.344 l0 0 l0 0 l0.224 12.432 l0 0 l0 0 l-0.448 14.672 l0 0 l0 0 l0 0 l0 0.112 l-4.592 21.392 l0 0 l0 0 l0 0 l-0.112 0 l0 0 l0 0 l0 0 l0 0 l0 0 l0 0 l-11.088 13.552 l0 0 l0 0 l0 0 l0 0 l-0.112 0 l0 0 l0 0 l-12.768 6.496 l0 0 l0 0 l0 0 l0 0 l0 0 l0 0 l0 0 l0 0 l-11.872 1.456 l0 0 l0 0 l0 0 l0 0 l0 0 l0 0 l0 0 l-0.112 0 l-15.008 -2.128 l-0.112 -0.112 l0 0 l0 0 l0 0 l-13.664 -7.28 l0 0 l0 -0.112 l0 0 l0 0 l0 0 l0 0 l0 0 l0 0 l-7.056 -8.848 l0 0 l0 0 l0 0 l0 0 l0 0 l-5.824 -15.68 l0 0 l0 0 l0 0 l0 0 l0 0 l0 0 z M29.12 30.13000000000001 l-7.504 1.68 l3.136 9.968 l4.816 -11.424 z M21.616 31.47 l7.056 -1.568 l-9.072 -4.816 z M38.416 28.560000000000002 l-4.368 0.672 l-1.008 1.568 l5.376 2.24 l0 -4.48 z M34.384 28.900000000000006 l4.032 -0.672 l0 -5.152 z M9.184 114.57600000000001 l0 0 l0 0 z M9.744 113.56800000000001 l-0.224 0.784 l15.792 -7.504 l-9.296 -4.032 z M30.8 31.02000000000001 l-0.336 -0.224 l0.336 2.464 l0.784 -1.12 z M25.424 106.512 l-4.704 -11.872 l-4.592 7.84 z M34.72 110.096 l2.8 -3.584 l-10.864 0.448 z M37.968 106.512 l-2.688 3.36 l9.856 -3.696 z M34.496 110.32000000000001 l-7.392 -2.688 l6.384 4.256 z M34.608 110.768 l-0.896 1.232 l1.008 0.672 z M35.616 110.096 l4.704 0.224 l4.928 -3.696 z M39.872 110.656 l-4.592 -0.224 l2.128 2.128 z M38.304 106.176 l7.84 -0.336 l2.688 -12.88 z M37.856 106.176 l11.088 -14 l4.368 -23.52 l-8.96 -19.376 l-11.648 -2.576 l-11.76 13.328 l-0.336 10.304 l0.336 23.968 l4.928 12.432 z M36.4 38.64 l-1.232 -1.68 l-3.472 1.904 l0.896 5.936 l0.56 0.224 z M35.504 36.736000000000004 l1.12 1.568 l1.456 -2.912 z M32.704 45.92 l0.224 -0.56 l-0.336 -0.112 z M33.264 45.47200000000001 l-0.224 0.672 l0.896 -0.448 z M34.384 45.92 l-1.232 0.448 l8.176 1.904 z M34.944 45.69600000000001 l9.072 3.136 l-4.032 -5.376 z M34.384 45.47200000000001 l5.376 -2.352 l-3.024 -4.144 l-3.248 6.16 z M32.144 44.688 l-0.784 -5.712 l-6.16 3.36 z M32.256 45.13600000000001 l-5.376 -1.904 l5.488 2.912 z M43.792 47.82400000000001 l-2.24 -5.04 l-1.232 0.56 z M41.888 42.56 l2.576 6.16 l5.824 -9.744 z M40.096 43.00800000000001 l1.344 -0.56 l-2.912 -7.056 l-1.68 3.248 z M35.28 36.512 l2.912 -1.568 l-5.936 -3.136 l-0.224 0.336 z M31.808 31.810000000000002 l0.112 -0.112 l-0.336 -0.224 z M31.808 32.480000000000004 l-0.896 1.344 l0.672 4.592 l3.36 -1.792 z M31.248 38.64 l-0.672 -4.368 l-5.264 7.504 z M32.032 46.36800000000001 l-7.168 -3.808 l-1.232 5.152 z M32.144 46.70400000000001 l-8.512 1.344 l-2.576 11.2 z M20.608 59.47200000000001 l2.576 -11.312 l-9.856 1.456 z M20.272 69.44000000000001 l0.224 -7.728 l-1.232 4.928 z M20.048 70 l-0.896 -2.688 l-0.56 1.792 z M20.048 70.44800000000001 l-1.456 -0.896 l-0.896 3.36 z M19.712 71.34400000000001 l-2.128 2.24 l-1.232 4.928 z M20.16 71.12 l-4.256 9.184 l4.592 12.88 z M15.792 102.36800000000001 l4.368 -7.392 l-7.728 5.936 z M15.68 102.70400000000001 l-3.472 -1.568 l-2.24 11.312 z M33.264 112.11200000000001 l-7.28 -4.816 l2.24 12.096 z M33.6 112.33600000000001 l-4.704 6.608 l5.936 -4.48 l-0.112 -1.344 z M35.056 113.456 l0.112 0.784 l0.56 -0.448 z M35.056 112.896 l0.896 0.672 l1.12 -0.784 l-2.128 -2.016 z M37.296 113.00800000000001 l-1.008 0.784 l6.16 4.144 z M37.632 112.784 l6.384 6.16 l1.232 -8.064 l-4.816 -0.224 z M40.88 110.32000000000001 l4.48 0.224 l0.672 -4.144 z M46.368 106.28800000000001 l-0.672 4.256 l6.832 0.224 z M46.704 106.06400000000001 l6.16 4.48 l-1.344 -6.048 z M46.48 105.72800000000001 l4.928 -1.68 l-2.24 -10.864 z M49.392 92.624 l2.464 11.312 l10.528 -3.36 z M53.536 69.328 l-4.032 22.288 l7.84 -10.864 z M53.872 68.32000000000001 l9.856 -1.792 l-6.496 -3.696 z M64.288 66.75200000000001 l-8.064 1.456 l9.744 -0.448 z M53.536 68.20800000000001 l3.36 -5.6 l-7.952 -4.368 z M48.944 57.792 l8.176 4.592 l7.504 -12.432 z M48.832 57.456 l15.568 -7.728 l-14.672 -0.336 z M48.496 57.120000000000005 l0.896 -7.728 l-4.592 0 z M44.8 48.944 l4.592 0.112 l1.12 -9.744 z M41.776 42.224000000000004 l8.512 -3.584 l-11.424 -3.36 z M32.48 31.47 l1.12 0.672 l-1.12 -0.672 l0 0 z M32.144 31.36 l0.112 -0.112 l-1.456 -0.896 l0.336 0.448 z M32.256 30.80000000000001 l0.224 0.224 l0 -0.112 z M30.016 30.690000000000012 l-0.112 -0.112 l-4.368 10.192 l4.928 -7.056 z M23.296 47.712 l1.12 -5.04 l-10.528 6.496 z M20.384 59.80800000000001 l-6.832 -9.184 l3.36 9.296 z M20.496 60.144000000000005 l-3.472 0.112 l2.016 5.824 z M18.928 66.64 l-2.24 -6.384 l-12.432 0.56 l14.112 8.176 z M18.256 69.328 l-14.112 -8.176 l9.744 15.792 l3.36 -3.472 z M17.024 74.144 l-2.912 3.136 l1.568 2.576 z M15.344 80.08000000000001 l-1.568 -2.576 l-2.688 2.912 z M14.224 80.528 l-3.472 0.224 l-1.232 1.232 z M15.456 80.528 l-6.272 2.016 l5.04 5.04 z M15.792 80.976 l-1.232 6.832 l5.712 5.824 z M20.496 94.304 l-6.048 -6.048 l-2.128 12.208 z M9.408 113.456 l0.56 -3.136 l-0.784 3.472 z M9.408 114.80000000000001 l0 0.112 l18.48 4.704 l-2.24 -12.432 z M28.672 119.616 l6.384 -0.224 l-0.224 -4.48 z M35.056 119.72800000000001 l-6.384 0.224 l6.608 4.368 z M35.168 114.688 l0.224 4.704 l8.176 -0.224 l-7.504 -5.152 z M45.696 110.88000000000001 l-1.344 7.952 l8.288 -7.616 z M51.856 104.38400000000001 l1.344 6.272 l8.96 -9.744 z M49.392 92.28800000000001 l13.104 7.952 l-4.928 -19.04 z M53.76 68.768 l3.92 11.648 l8.512 -12.32 z M66.416 67.536 l-0.112 -1.12 l-1.456 0.224 z M66.64 66.304 l0.112 0.784 l0.224 -0.896 z M64.288 66.41600000000001 l2.016 -0.448 l-1.344 -15.904 l-7.616 12.432 z M49.728 49.05600000000001 l14.896 0.224 l-13.664 -10.416 z M47.824 37.52000000000001 l-7.728 -3.36 l-1.12 0.784 z M40.432 33.94000000000001 l9.744 4.144 l-5.264 -6.944 z M38.752 34.608000000000004 l0.896 -0.56 l-0.896 -0.448 l0 1.008 z M38.416 34.608000000000004 l0 -1.12 l-5.6 -2.352 l-0.112 0 z M32.704 30.690000000000012 l0.896 -1.344 l-2.912 0.448 z M29.792 30.13000000000001 l0 -0.112 l-0.112 0 z M24.416 41.888000000000005 l-3.136 -9.968 l-9.968 2.24 z M11.088 34.38000000000001 l0.224 1.904 l10.864 4.704 z M10.976 36.176 l-0.224 -1.68 l-1.12 1.12 z M24.304 42.33600000000001 l-12.88 -5.6 l1.68 12.544 z M16.464 59.92 l-3.472 -10.08 l-8.96 10.64 z M13.664 77.168 l-9.52 -15.456 l4.48 18.816 l1.904 -0.112 z M10.192 80.75200000000001 l-1.456 0.112 l0.224 1.232 z M8.512 81.648 l-0.224 -0.784 l-0.336 0.112 z M14.224 88.03200000000001 l-5.04 -5.04 l2.912 16.912 z M11.76 101.696 l-7.056 8.848 l3.92 4.032 z M4.48 110.32000000000001 l7.28 -9.184 l-16.8 -0.672 z M8.288 114.80000000000001 l-3.808 -3.92 l-3.808 4.704 z M8.96 115.584 l-0.112 -0.112 l-0.448 2.688 z M9.184 116.03200000000001 l-1.68 8.4 l6.608 -1.568 z M9.296 115.47200000000001 l5.264 7.28 l12.768 -2.912 l-17.92 -4.48 z M27.776 120.06400000000001 l-12.992 3.024 l6.16 8.624 z M35.392 124.768 l-6.72 -4.368 l7.168 12.992 z M35.728 124.992 l0.448 8.512 l3.248 -6.048 z M35.728 124.54400000000001 l3.92 2.576 l4.144 -7.616 l-8.4 0.224 z M44.016 119.72800000000001 l-4.032 7.616 l7.616 5.04 z M44.352 119.616 l3.472 12.432 l2.464 -9.968 z M44.464 119.168 l5.936 2.576 l2.352 -10.192 z M53.2 111.552 l-2.464 10.304 l9.52 4.032 z M62.832 100.912 l-9.296 9.968 l17.92 1.68 z M57.904 81.2 l5.04 19.04 l13.216 -8.848 z M66.64 68.096 l-8.624 12.432 l18.48 -3.92 z M67.424 66.19200000000001 l-0.56 1.344 l7.616 -2.688 z M67.648 65.744 l8.736 -1.568 l-5.488 -6.944 z M67.2 65.85600000000001 l3.472 -8.96 l-5.264 -6.832 l1.232 15.904 z M65.52 49.72800000000001 l5.264 6.832 l2.912 -7.392 z M51.184 38.64 l13.776 10.528 l0 -14.672 z M45.248 31.02000000000001 l5.376 7.056 l2.016 -11.76 z M45.024 30.690000000000012 l7.056 -4.368 l-9.296 1.456 z M44.688 30.91000000000001 l-2.24 -3.024 l-3.696 0.56 l0 4.816 l1.344 0.56 z M38.752 28.11 l3.36 -0.56 l-3.36 -4.48 l0 5.04 z M33.824 28.900000000000006 l3.808 -5.264 l-6.944 5.824 z M29.232 29.790000000000006 l0.336 -0.112 l-4.144 -1.904 z M21.168 31.580000000000013 l-1.904 -6.496 l-7.952 8.624 z M9.296 35.39200000000001 l1.12 -1.232 l-4.704 -0.336 z M9.072 35.72800000000001 l-4.032 -1.792 l2.016 3.92 z M9.408 35.84 l-2.128 2.352 l5.376 10.304 l-1.68 -11.984 z M12.768 49.39200000000001 l-5.824 -10.976 l-10.64 11.424 z M12.432 49.72800000000001 l-16.128 0.448 l5.264 7.392 z M11.984 50.512 l-10.192 7.28 l1.904 2.576 z M3.36 60.592 l-1.792 -2.576 l-7.056 5.04 z M3.36 60.92800000000001 l-9.408 2.688 l4.928 6.272 z M3.584 61.152 l-4.368 8.96 l8.4 10.528 l0.672 -0.112 z M7.168 80.64000000000001 l-8.176 -10.192 l-5.488 11.088 z M7.504 80.976 l-10.976 0.672 l11.984 0.56 z M11.872 100.80000000000001 l-3.136 -17.92 l-13.888 17.136 z M4.256 110.54400000000001 l-9.296 -9.632 l5.376 14.56 z M8.512 115.13600000000001 l-7.952 0.896 l6.608 8.176 z M14.336 123.2 l-6.608 1.568 l12.544 6.72 z M28.112 120.176 l-6.944 11.76 l14.56 2.016 z M39.76 127.68 l-3.36 6.272 l10.976 -1.344 z M50.624 122.19200000000001 l-2.464 10.192 l12.096 -6.048 z M60.704 126 l10.752 -13.104 l-18.032 -1.68 z M71.68 112.33600000000001 l4.48 -20.496 l-13.104 8.736 z M76.272 91.05600000000001 l0.336 -14.112 l-18.48 3.92 z M66.976 67.872 l9.632 8.4 l-0.112 -11.76 z M71.12 56.784000000000006 l5.264 6.832 l-2.464 -14 z M65.296 49.28 l8.4 -0.448 l-8.4 -13.888 l0 14.336 z M50.96 38.304 l13.776 -4.144 l-11.648 -7.84 z M42.56 27.55000000000001 l9.408 -1.568 l-12.992 -3.136 z M30.016 29.570000000000007 l7.952 -6.72 l-18.032 2.016 z M10.752 33.82000000000001 l7.616 -8.288 l-13.216 7.952 z M4.592 33.94000000000001 l-7.84 15.008 l10.08 -10.864 z M-3.92 50.512 l-2.24 12.656 l7.504 -5.376 z M-6.272 64.06400000000001 l-0.336 16.8 l5.376 -10.64 z M8.512 82.54400000000001 l-15.12 -0.672 l1.232 17.92 z" style="fill: #ffffff;"/></g>
                </g>
            </svg>
        