<svg xmlns="http://www.w3.org/2000/svg" width="35.995" height="35.995" viewBox="0 0 35.995 35.995">
    <defs>
        <linearGradient id="m09lognw4a" x1=".5" x2=".5" y2="1" gradientUnits="objectBoundingBox">
            <stop offset="0" stop-color="#5fa4d2" stop-opacity=".6"/>
            <stop offset="1" stop-color="#305269"/>
        </linearGradient>
    </defs>
    <path fill="url(#m09lognw4a)" d="M13.275 24.321l1.925-1.926a2.056 2.056 0 0 0 .548.112 2.25 2.25 0 1 0-2.25-2.25 2.056 2.056 0 0 0 .113.548l-1.927 1.927-8.211-8.212a1.115 1.115 0 0 0-1.758.211 14.435 14.435 0 0 0 19.548 19.546 1.107 1.107 0 0 0 .211-1.758zM14.7 0a1.132 1.132 0 0 0-1.2 1.125v2.222a1.114 1.114 0 0 0 1.055 1.118 18.058 18.058 0 0 1 16.938 16.98 1.123 1.123 0 0 0 1.118 1.055h2.257a1.132 1.132 0 0 0 1.125-1.2A22.554 22.554 0 0 0 14.7 0zm.021 6.75A1.134 1.134 0 0 0 13.5 7.882v2.257a1.121 1.121 0 0 0 1.041 1.118 11.231 11.231 0 0 1 10.188 10.209 1.13 1.13 0 0 0 1.118 1.034h2.264a1.139 1.139 0 0 0 1.132-1.216A15.82 15.82 0 0 0 14.716 6.75z" transform="translate(0 .002)"/>
</svg>
